<mxfile host="Electron" agent="Mozilla/5.0 (Macintosh; Intel Mac OS X 10_15_7) AppleWebKit/537.36 (KHTML, like Gecko) draw.io/24.7.8 Chrome/128.0.6613.36 Electron/32.0.1 Safari/537.36" version="24.7.8">
  <diagram name="PÃ¡gina-1" id="xbjgpqh8IEmS6ddnW4LI">
    <mxGraphModel dx="2368" dy="674" grid="1" gridSize="10" guides="1" tooltips="1" connect="1" arrows="1" fold="1" page="1" pageScale="1" pageWidth="827" pageHeight="1169" math="0" shadow="0">
      <root>
        <mxCell id="0" />
        <mxCell id="1" parent="0" />
        <mxCell id="Fi8ofQacymHmuX7G_40k-17" value="userName" style="ellipse;whiteSpace=wrap;html=1;align=center;" parent="1" vertex="1">
          <mxGeometry x="-46" y="510" width="100" height="40" as="geometry" />
        </mxCell>
        <mxCell id="Fi8ofQacymHmuX7G_40k-18" value="password" style="ellipse;whiteSpace=wrap;html=1;align=center;" parent="1" vertex="1">
          <mxGeometry x="-49" y="452" width="100" height="40" as="geometry" />
        </mxCell>
        <mxCell id="Fi8ofQacymHmuX7G_40k-19" value="" style="endArrow=none;html=1;rounded=0;exitX=0.5;exitY=0;exitDx=0;exitDy=0;" parent="1" source="Fi8ofQacymHmuX7G_40k-93" target="Fi8ofQacymHmuX7G_40k-17" edge="1">
          <mxGeometry relative="1" as="geometry">
            <mxPoint x="151" y="460" as="sourcePoint" />
            <mxPoint x="311" y="460" as="targetPoint" />
          </mxGeometry>
        </mxCell>
        <mxCell id="Fi8ofQacymHmuX7G_40k-20" value="" style="endArrow=none;html=1;rounded=0;exitX=0.5;exitY=0;exitDx=0;exitDy=0;" parent="1" source="Fi8ofQacymHmuX7G_40k-93" edge="1">
          <mxGeometry relative="1" as="geometry">
            <mxPoint x="129" y="620" as="sourcePoint" />
            <mxPoint x="-23" y="490" as="targetPoint" />
          </mxGeometry>
        </mxCell>
        <mxCell id="Fi8ofQacymHmuX7G_40k-63" value="reportID" style="ellipse;whiteSpace=wrap;html=1;align=center;fontStyle=4" parent="1" vertex="1">
          <mxGeometry x="282" y="1235.39" width="100" height="40" as="geometry" />
        </mxCell>
        <mxCell id="Fi8ofQacymHmuX7G_40k-76" value="Project" style="whiteSpace=wrap;html=1;align=center;" parent="1" vertex="1">
          <mxGeometry x="-507" y="886.14" width="100" height="40" as="geometry" />
        </mxCell>
        <mxCell id="Fi8ofQacymHmuX7G_40k-77" value="is asigned" style="shape=rhombus;perimeter=rhombusPerimeter;whiteSpace=wrap;html=1;align=center;" parent="1" vertex="1">
          <mxGeometry x="-260" y="876" width="120" height="60" as="geometry" />
        </mxCell>
        <mxCell id="Fi8ofQacymHmuX7G_40k-78" value="" style="endArrow=none;html=1;rounded=0;exitX=0;exitY=0.5;exitDx=0;exitDy=0;entryX=1;entryY=0.5;entryDx=0;entryDy=0;" parent="1" source="Fi8ofQacymHmuX7G_40k-45" target="Fi8ofQacymHmuX7G_40k-77" edge="1">
          <mxGeometry relative="1" as="geometry">
            <mxPoint x="120" y="830" as="sourcePoint" />
            <mxPoint x="260" y="980" as="targetPoint" />
          </mxGeometry>
        </mxCell>
        <mxCell id="Fi8ofQacymHmuX7G_40k-79" value="" style="endArrow=none;html=1;rounded=0;entryX=0;entryY=0.5;entryDx=0;entryDy=0;exitX=1;exitY=0.5;exitDx=0;exitDy=0;" parent="1" source="Fi8ofQacymHmuX7G_40k-76" target="Fi8ofQacymHmuX7G_40k-77" edge="1">
          <mxGeometry relative="1" as="geometry">
            <mxPoint x="260" y="820" as="sourcePoint" />
            <mxPoint x="260" y="890" as="targetPoint" />
          </mxGeometry>
        </mxCell>
        <mxCell id="Fi8ofQacymHmuX7G_40k-80" value="title" style="ellipse;whiteSpace=wrap;html=1;align=center;" parent="1" vertex="1">
          <mxGeometry x="-413" y="710" width="100" height="40" as="geometry" />
        </mxCell>
        <mxCell id="Fi8ofQacymHmuX7G_40k-81" value="linkedOrganizationId" style="ellipse;whiteSpace=wrap;html=1;align=center;" parent="1" vertex="1">
          <mxGeometry x="-565" y="585" width="130" height="39.25" as="geometry" />
        </mxCell>
        <mxCell id="Fi8ofQacymHmuX7G_40k-82" value="category" style="ellipse;whiteSpace=wrap;html=1;align=center;" parent="1" vertex="1">
          <mxGeometry x="-650" y="696.14" width="100" height="40" as="geometry" />
        </mxCell>
        <mxCell id="Fi8ofQacymHmuX7G_40k-83" value="beginningDate" style="ellipse;whiteSpace=wrap;html=1;align=center;" parent="1" vertex="1">
          <mxGeometry x="-680" y="760.14" width="100" height="40" as="geometry" />
        </mxCell>
        <mxCell id="Fi8ofQacymHmuX7G_40k-84" value="endingDate" style="ellipse;whiteSpace=wrap;html=1;align=center;" parent="1" vertex="1">
          <mxGeometry x="-695" y="810.14" width="95" height="40" as="geometry" />
        </mxCell>
        <mxCell id="Fi8ofQacymHmuX7G_40k-85" value="projectID" style="ellipse;whiteSpace=wrap;html=1;align=center;fontStyle=4" parent="1" vertex="1">
          <mxGeometry x="-377" y="786.14" width="100" height="40" as="geometry" />
        </mxCell>
        <mxCell id="Fi8ofQacymHmuX7G_40k-93" value="Academic" style="whiteSpace=wrap;html=1;align=center;" parent="1" vertex="1">
          <mxGeometry x="-249" y="622" width="100" height="40" as="geometry" />
        </mxCell>
        <mxCell id="Fi8ofQacymHmuX7G_40k-97" value="&lt;span&gt;personalNumber&lt;/span&gt;" style="ellipse;whiteSpace=wrap;html=1;align=center;fontStyle=0" parent="1" vertex="1">
          <mxGeometry x="-391" y="460" width="100" height="40" as="geometry" />
        </mxCell>
        <mxCell id="Fi8ofQacymHmuX7G_40k-98" value="name" style="ellipse;whiteSpace=wrap;html=1;align=center;" parent="1" vertex="1">
          <mxGeometry x="-334" y="420" width="100" height="40" as="geometry" />
        </mxCell>
        <mxCell id="Fi8ofQacymHmuX7G_40k-99" value="firstSurname" style="ellipse;whiteSpace=wrap;html=1;align=center;" parent="1" vertex="1">
          <mxGeometry x="-259" y="460" width="100" height="40" as="geometry" />
        </mxCell>
        <mxCell id="Fi8ofQacymHmuX7G_40k-100" value="secondSurname" style="ellipse;whiteSpace=wrap;html=1;align=center;" parent="1" vertex="1">
          <mxGeometry x="-189" y="420" width="100" height="40" as="geometry" />
        </mxCell>
        <mxCell id="Fi8ofQacymHmuX7G_40k-101" value="email" style="ellipse;whiteSpace=wrap;html=1;align=center;" parent="1" vertex="1">
          <mxGeometry x="-149" y="470" width="100" height="40" as="geometry" />
        </mxCell>
        <mxCell id="Fi8ofQacymHmuX7G_40k-102" value="" style="endArrow=none;html=1;rounded=0;entryX=0.5;entryY=0;entryDx=0;entryDy=0;" parent="1" source="Fi8ofQacymHmuX7G_40k-101" target="Fi8ofQacymHmuX7G_40k-93" edge="1">
          <mxGeometry relative="1" as="geometry">
            <mxPoint x="-129" y="640" as="sourcePoint" />
            <mxPoint x="-189" y="640" as="targetPoint" />
          </mxGeometry>
        </mxCell>
        <mxCell id="Fi8ofQacymHmuX7G_40k-103" value="" style="endArrow=none;html=1;rounded=0;entryX=0.5;entryY=0;entryDx=0;entryDy=0;" parent="1" source="Fi8ofQacymHmuX7G_40k-100" target="Fi8ofQacymHmuX7G_40k-93" edge="1">
          <mxGeometry relative="1" as="geometry">
            <mxPoint x="-119" y="560" as="sourcePoint" />
            <mxPoint x="-239" y="620" as="targetPoint" />
          </mxGeometry>
        </mxCell>
        <mxCell id="Fi8ofQacymHmuX7G_40k-104" value="" style="endArrow=none;html=1;rounded=0;exitX=0.5;exitY=1;exitDx=0;exitDy=0;entryX=0.5;entryY=0;entryDx=0;entryDy=0;" parent="1" source="Fi8ofQacymHmuX7G_40k-99" target="Fi8ofQacymHmuX7G_40k-93" edge="1">
          <mxGeometry relative="1" as="geometry">
            <mxPoint x="-184" y="504" as="sourcePoint" />
            <mxPoint x="-239" y="620" as="targetPoint" />
          </mxGeometry>
        </mxCell>
        <mxCell id="Fi8ofQacymHmuX7G_40k-105" value="" style="endArrow=none;html=1;rounded=0;exitX=0.5;exitY=1;exitDx=0;exitDy=0;entryX=0.5;entryY=0;entryDx=0;entryDy=0;" parent="1" source="Fi8ofQacymHmuX7G_40k-98" target="Fi8ofQacymHmuX7G_40k-93" edge="1">
          <mxGeometry relative="1" as="geometry">
            <mxPoint x="-219" y="470" as="sourcePoint" />
            <mxPoint x="-239" y="620" as="targetPoint" />
          </mxGeometry>
        </mxCell>
        <mxCell id="Fi8ofQacymHmuX7G_40k-106" value="" style="endArrow=none;html=1;rounded=0;exitX=1;exitY=1;exitDx=0;exitDy=0;entryX=0.5;entryY=0;entryDx=0;entryDy=0;" parent="1" source="Fi8ofQacymHmuX7G_40k-97" target="Fi8ofQacymHmuX7G_40k-93" edge="1">
          <mxGeometry relative="1" as="geometry">
            <mxPoint x="-274" y="504" as="sourcePoint" />
            <mxPoint x="-239" y="620" as="targetPoint" />
          </mxGeometry>
        </mxCell>
        <mxCell id="Fi8ofQacymHmuX7G_40k-125" value="LInkedOrganization" style="whiteSpace=wrap;html=1;align=center;" parent="1" vertex="1">
          <mxGeometry x="-750" y="1003.1399999999999" width="120" height="44" as="geometry" />
        </mxCell>
        <mxCell id="Fi8ofQacymHmuX7G_40k-129" value="has" style="shape=rhombus;perimeter=rhombusPerimeter;whiteSpace=wrap;html=1;align=center;" parent="1" vertex="1">
          <mxGeometry x="-517" y="994" width="120" height="60" as="geometry" />
        </mxCell>
        <mxCell id="Fi8ofQacymHmuX7G_40k-130" value="" style="endArrow=none;html=1;rounded=0;exitX=0.5;exitY=1;exitDx=0;exitDy=0;entryX=0.5;entryY=0;entryDx=0;entryDy=0;" parent="1" source="Fi8ofQacymHmuX7G_40k-76" target="Fi8ofQacymHmuX7G_40k-129" edge="1">
          <mxGeometry relative="1" as="geometry">
            <mxPoint x="213" y="1084" as="sourcePoint" />
            <mxPoint x="143" y="974" as="targetPoint" />
          </mxGeometry>
        </mxCell>
        <mxCell id="Fi8ofQacymHmuX7G_40k-131" value="" style="endArrow=none;html=1;rounded=0;" parent="1" source="Fi8ofQacymHmuX7G_40k-125" target="Fi8ofQacymHmuX7G_40k-129" edge="1">
          <mxGeometry relative="1" as="geometry">
            <mxPoint x="-137" y="1161.86" as="sourcePoint" />
            <mxPoint x="-327" y="1151.86" as="targetPoint" />
          </mxGeometry>
        </mxCell>
        <mxCell id="Fi8ofQacymHmuX7G_40k-132" value="linkedOrganizationID" style="ellipse;whiteSpace=wrap;html=1;align=center;fontStyle=4" parent="1" vertex="1">
          <mxGeometry x="-870" y="907.28" width="120" height="40" as="geometry" />
        </mxCell>
        <mxCell id="Fi8ofQacymHmuX7G_40k-133" value="description" style="ellipse;whiteSpace=wrap;html=1;align=center;" parent="1" vertex="1">
          <mxGeometry x="-883" y="960.1699999999998" width="100" height="40" as="geometry" />
        </mxCell>
        <mxCell id="Fi8ofQacymHmuX7G_40k-134" value="name" style="ellipse;whiteSpace=wrap;html=1;align=center;" parent="1" vertex="1">
          <mxGeometry x="-940" y="1007.1399999999999" width="100" height="40" as="geometry" />
        </mxCell>
        <mxCell id="Fi8ofQacymHmuX7G_40k-135" value="address" style="ellipse;whiteSpace=wrap;html=1;align=center;" parent="1" vertex="1">
          <mxGeometry x="-950" y="1065.3899999999999" width="120" height="40" as="geometry" />
        </mxCell>
        <mxCell id="Fi8ofQacymHmuX7G_40k-136" value="email" style="ellipse;whiteSpace=wrap;html=1;align=center;" parent="1" vertex="1">
          <mxGeometry x="-933" y="1113.1399999999999" width="120" height="40" as="geometry" />
        </mxCell>
        <mxCell id="Fi8ofQacymHmuX7G_40k-137" value="alterContact" style="ellipse;whiteSpace=wrap;html=1;align=center;" parent="1" vertex="1">
          <mxGeometry x="-893" y="1162.2800000000002" width="120" height="40" as="geometry" />
        </mxCell>
        <mxCell id="Fi8ofQacymHmuX7G_40k-138" value="" style="endArrow=none;html=1;rounded=0;" parent="1" source="Fi8ofQacymHmuX7G_40k-125" target="Fi8ofQacymHmuX7G_40k-132" edge="1">
          <mxGeometry relative="1" as="geometry">
            <mxPoint x="-480" y="1037.1399999999999" as="sourcePoint" />
            <mxPoint x="-420" y="1037.1399999999999" as="targetPoint" />
          </mxGeometry>
        </mxCell>
        <mxCell id="Fi8ofQacymHmuX7G_40k-139" value="" style="endArrow=none;html=1;rounded=0;" parent="1" source="Fi8ofQacymHmuX7G_40k-125" target="Fi8ofQacymHmuX7G_40k-133" edge="1">
          <mxGeometry relative="1" as="geometry">
            <mxPoint x="-540" y="1059.1399999999999" as="sourcePoint" />
            <mxPoint x="-680" y="1100.1399999999999" as="targetPoint" />
          </mxGeometry>
        </mxCell>
        <mxCell id="Fi8ofQacymHmuX7G_40k-140" value="" style="endArrow=none;html=1;rounded=0;" parent="1" source="Fi8ofQacymHmuX7G_40k-125" target="Fi8ofQacymHmuX7G_40k-134" edge="1">
          <mxGeometry relative="1" as="geometry">
            <mxPoint x="-540" y="1059.1399999999999" as="sourcePoint" />
            <mxPoint x="-655" y="1135.1399999999999" as="targetPoint" />
          </mxGeometry>
        </mxCell>
        <mxCell id="Fi8ofQacymHmuX7G_40k-141" value="" style="endArrow=none;html=1;rounded=0;" parent="1" source="Fi8ofQacymHmuX7G_40k-125" target="Fi8ofQacymHmuX7G_40k-135" edge="1">
          <mxGeometry relative="1" as="geometry">
            <mxPoint x="-540" y="1059.1399999999999" as="sourcePoint" />
            <mxPoint x="-773" y="1202.2800000000002" as="targetPoint" />
          </mxGeometry>
        </mxCell>
        <mxCell id="Fi8ofQacymHmuX7G_40k-142" value="" style="endArrow=none;html=1;rounded=0;" parent="1" source="Fi8ofQacymHmuX7G_40k-125" target="Fi8ofQacymHmuX7G_40k-136" edge="1">
          <mxGeometry relative="1" as="geometry">
            <mxPoint x="-540" y="1059.1399999999999" as="sourcePoint" />
            <mxPoint x="-530" y="1223.1399999999999" as="targetPoint" />
          </mxGeometry>
        </mxCell>
        <mxCell id="Fi8ofQacymHmuX7G_40k-143" value="" style="endArrow=none;html=1;rounded=0;" parent="1" source="Fi8ofQacymHmuX7G_40k-125" target="Fi8ofQacymHmuX7G_40k-137" edge="1">
          <mxGeometry relative="1" as="geometry">
            <mxPoint x="-540" y="1059.1399999999999" as="sourcePoint" />
            <mxPoint x="-482" y="1188.1399999999999" as="targetPoint" />
          </mxGeometry>
        </mxCell>
        <mxCell id="Fi8ofQacymHmuX7G_40k-187" value="" style="endArrow=none;html=1;rounded=0;" parent="1" source="Fi8ofQacymHmuX7G_40k-76" target="Fi8ofQacymHmuX7G_40k-85" edge="1">
          <mxGeometry relative="1" as="geometry">
            <mxPoint x="-397" y="914" as="sourcePoint" />
            <mxPoint x="-247" y="1032" as="targetPoint" />
          </mxGeometry>
        </mxCell>
        <mxCell id="Fi8ofQacymHmuX7G_40k-188" value="" style="endArrow=none;html=1;rounded=0;" parent="1" source="Fi8ofQacymHmuX7G_40k-76" target="Fi8ofQacymHmuX7G_40k-80" edge="1">
          <mxGeometry relative="1" as="geometry">
            <mxPoint x="-497" y="914" as="sourcePoint" />
            <mxPoint x="-607" y="826" as="targetPoint" />
          </mxGeometry>
        </mxCell>
        <mxCell id="Fi8ofQacymHmuX7G_40k-189" value="" style="endArrow=none;html=1;rounded=0;" parent="1" source="Fi8ofQacymHmuX7G_40k-76" target="Fi8ofQacymHmuX7G_40k-81" edge="1">
          <mxGeometry relative="1" as="geometry">
            <mxPoint x="-497" y="914" as="sourcePoint" />
            <mxPoint x="-617" y="846" as="targetPoint" />
          </mxGeometry>
        </mxCell>
        <mxCell id="Fi8ofQacymHmuX7G_40k-190" value="" style="endArrow=none;html=1;rounded=0;" parent="1" source="Fi8ofQacymHmuX7G_40k-76" target="Fi8ofQacymHmuX7G_40k-82" edge="1">
          <mxGeometry relative="1" as="geometry">
            <mxPoint x="-497" y="914" as="sourcePoint" />
            <mxPoint x="-647" y="906" as="targetPoint" />
          </mxGeometry>
        </mxCell>
        <mxCell id="Fi8ofQacymHmuX7G_40k-191" value="" style="endArrow=none;html=1;rounded=0;" parent="1" source="Fi8ofQacymHmuX7G_40k-76" target="Fi8ofQacymHmuX7G_40k-83" edge="1">
          <mxGeometry relative="1" as="geometry">
            <mxPoint x="-497" y="914" as="sourcePoint" />
            <mxPoint x="-647" y="964" as="targetPoint" />
          </mxGeometry>
        </mxCell>
        <mxCell id="Fi8ofQacymHmuX7G_40k-192" value="" style="endArrow=none;html=1;rounded=0;" parent="1" source="Fi8ofQacymHmuX7G_40k-76" target="Fi8ofQacymHmuX7G_40k-84" edge="1">
          <mxGeometry relative="1" as="geometry">
            <mxPoint x="-497" y="914" as="sourcePoint" />
            <mxPoint x="-612" y="1000" as="targetPoint" />
          </mxGeometry>
        </mxCell>
        <mxCell id="Fi8ofQacymHmuX7G_40k-198" value="1..*" style="text;html=1;align=center;verticalAlign=middle;resizable=0;points=[];autosize=1;strokeColor=none;fillColor=none;" parent="1" vertex="1">
          <mxGeometry x="-499" y="922.14" width="40" height="30" as="geometry" />
        </mxCell>
        <mxCell id="Fi8ofQacymHmuX7G_40k-199" value="1" style="text;html=1;align=center;verticalAlign=middle;resizable=0;points=[];autosize=1;strokeColor=none;fillColor=none;" parent="1" vertex="1">
          <mxGeometry x="-630" y="994.8899999999999" width="30" height="30" as="geometry" />
        </mxCell>
        <mxCell id="Fi8ofQacymHmuX7G_40k-200" value="asignationDocumentPath" style="ellipse;whiteSpace=wrap;html=1;align=center;" parent="1" vertex="1">
          <mxGeometry x="-344" y="1000.17" width="155" height="40" as="geometry" />
        </mxCell>
        <mxCell id="Fi8ofQacymHmuX7G_40k-201" value="" style="endArrow=none;html=1;rounded=0;entryX=0.5;entryY=1;entryDx=0;entryDy=0;" parent="1" source="Fi8ofQacymHmuX7G_40k-200" target="Fi8ofQacymHmuX7G_40k-77" edge="1">
          <mxGeometry relative="1" as="geometry">
            <mxPoint x="-334.5" y="906.72" as="sourcePoint" />
            <mxPoint x="-196.5" y="912.72" as="targetPoint" />
          </mxGeometry>
        </mxCell>
        <mxCell id="Fi8ofQacymHmuX7G_40k-204" value="coordinatorID" style="ellipse;whiteSpace=wrap;html=1;align=center;fontStyle=4" parent="1" vertex="1">
          <mxGeometry x="-397" y="510" width="100" height="40" as="geometry" />
        </mxCell>
        <mxCell id="Fi8ofQacymHmuX7G_40k-205" value="" style="endArrow=none;html=1;rounded=0;entryX=0.5;entryY=0;entryDx=0;entryDy=0;" parent="1" source="Fi8ofQacymHmuX7G_40k-204" target="Fi8ofQacymHmuX7G_40k-93" edge="1">
          <mxGeometry relative="1" as="geometry">
            <mxPoint x="-314" y="554" as="sourcePoint" />
            <mxPoint x="-289" y="600" as="targetPoint" />
          </mxGeometry>
        </mxCell>
        <mxCell id="Fi8ofQacymHmuX7G_40k-212" value="1" style="text;html=1;align=center;verticalAlign=middle;resizable=0;points=[];autosize=1;strokeColor=none;fillColor=none;" parent="1" vertex="1">
          <mxGeometry x="-407" y="906" width="30" height="30" as="geometry" />
        </mxCell>
        <mxCell id="Fi8ofQacymHmuX7G_40k-239" value="evaluates" style="shape=rhombus;perimeter=rhombusPerimeter;whiteSpace=wrap;html=1;align=center;" parent="1" vertex="1">
          <mxGeometry x="40" y="612" width="120" height="60" as="geometry" />
        </mxCell>
        <mxCell id="Fi8ofQacymHmuX7G_40k-240" value="" style="endArrow=none;html=1;rounded=0;" parent="1" source="csQHXVmGijgFcGHTdfF5-2" target="Fi8ofQacymHmuX7G_40k-239" edge="1">
          <mxGeometry relative="1" as="geometry">
            <mxPoint x="68" y="850" as="sourcePoint" />
            <mxPoint x="158" y="785" as="targetPoint" />
          </mxGeometry>
        </mxCell>
        <mxCell id="Fi8ofQacymHmuX7G_40k-241" value="" style="endArrow=none;html=1;rounded=0;entryX=0;entryY=0.5;entryDx=0;entryDy=0;" parent="1" source="Fi8ofQacymHmuX7G_40k-93" target="Fi8ofQacymHmuX7G_40k-239" edge="1">
          <mxGeometry relative="1" as="geometry">
            <mxPoint x="253" y="870" as="sourcePoint" />
            <mxPoint x="128" y="660" as="targetPoint" />
          </mxGeometry>
        </mxCell>
        <mxCell id="Fi8ofQacymHmuX7G_40k-242" value="presentationPath" style="ellipse;whiteSpace=wrap;html=1;align=center;" parent="1" vertex="1">
          <mxGeometry x="414" y="472" width="100" height="38" as="geometry" />
        </mxCell>
        <mxCell id="Fi8ofQacymHmuX7G_40k-243" value="" style="endArrow=none;html=1;rounded=0;" parent="1" source="Fi8ofQacymHmuX7G_40k-242" target="csQHXVmGijgFcGHTdfF5-2" edge="1">
          <mxGeometry relative="1" as="geometry">
            <mxPoint x="305" y="265" as="sourcePoint" />
            <mxPoint x="402" y="286" as="targetPoint" />
          </mxGeometry>
        </mxCell>
        <mxCell id="Fi8ofQacymHmuX7G_40k-244" value="" style="endArrow=none;html=1;rounded=0;exitX=0.5;exitY=1;exitDx=0;exitDy=0;entryX=0.5;entryY=0;entryDx=0;entryDy=0;" parent="1" source="Fi8ofQacymHmuX7G_40k-93" target="Fi8ofQacymHmuX7G_40k-77" edge="1">
          <mxGeometry relative="1" as="geometry">
            <mxPoint x="-270" y="720" as="sourcePoint" />
            <mxPoint x="70" y="880" as="targetPoint" />
          </mxGeometry>
        </mxCell>
        <mxCell id="Fi8ofQacymHmuX7G_40k-247" value="1..*" style="text;html=1;align=center;verticalAlign=middle;resizable=0;points=[];autosize=1;strokeColor=none;fillColor=none;" parent="1" vertex="1">
          <mxGeometry x="-148" y="616" width="40" height="30" as="geometry" />
        </mxCell>
        <mxCell id="XG4ho2Jqd21ROxFTkD6N-1" value="ProjectResponsible" style="whiteSpace=wrap;html=1;align=center;" parent="1" vertex="1">
          <mxGeometry x="-517" y="1131.39" width="120" height="40" as="geometry" />
        </mxCell>
        <mxCell id="XG4ho2Jqd21ROxFTkD6N-4" value="" style="endArrow=none;html=1;rounded=0;" parent="1" source="XG4ho2Jqd21ROxFTkD6N-1" target="Fi8ofQacymHmuX7G_40k-129" edge="1">
          <mxGeometry relative="1" as="geometry">
            <mxPoint x="-397" y="927.86" as="sourcePoint" />
            <mxPoint x="-322" y="1007.86" as="targetPoint" />
          </mxGeometry>
        </mxCell>
        <mxCell id="XG4ho2Jqd21ROxFTkD6N-6" value="projectResponsibleID" style="ellipse;whiteSpace=wrap;html=1;align=center;fontStyle=4" parent="1" vertex="1">
          <mxGeometry x="-680" y="1165.39" width="130" height="40" as="geometry" />
        </mxCell>
        <mxCell id="XG4ho2Jqd21ROxFTkD6N-7" value="name" style="ellipse;whiteSpace=wrap;html=1;align=center;" parent="1" vertex="1">
          <mxGeometry x="-570" y="1245.39" width="100" height="40" as="geometry" />
        </mxCell>
        <mxCell id="XG4ho2Jqd21ROxFTkD6N-8" value="email" style="ellipse;whiteSpace=wrap;html=1;align=center;" parent="1" vertex="1">
          <mxGeometry x="-470" y="1275.39" width="104" height="40" as="geometry" />
        </mxCell>
        <mxCell id="XG4ho2Jqd21ROxFTkD6N-9" value="alterContact" style="ellipse;whiteSpace=wrap;html=1;align=center;" parent="1" vertex="1">
          <mxGeometry x="-407" y="1217.89" width="99.5" height="40" as="geometry" />
        </mxCell>
        <mxCell id="XG4ho2Jqd21ROxFTkD6N-10" value="" style="endArrow=none;html=1;rounded=0;" parent="1" source="XG4ho2Jqd21ROxFTkD6N-1" target="XG4ho2Jqd21ROxFTkD6N-6" edge="1">
          <mxGeometry relative="1" as="geometry">
            <mxPoint x="-697" y="1195.39" as="sourcePoint" />
            <mxPoint x="-635" y="1261.39" as="targetPoint" />
          </mxGeometry>
        </mxCell>
        <mxCell id="XG4ho2Jqd21ROxFTkD6N-11" value="" style="endArrow=none;html=1;rounded=0;" parent="1" source="XG4ho2Jqd21ROxFTkD6N-1" target="XG4ho2Jqd21ROxFTkD6N-7" edge="1">
          <mxGeometry relative="1" as="geometry">
            <mxPoint x="-457" y="1191.39" as="sourcePoint" />
            <mxPoint x="-518" y="1225.39" as="targetPoint" />
          </mxGeometry>
        </mxCell>
        <mxCell id="XG4ho2Jqd21ROxFTkD6N-12" value="" style="endArrow=none;html=1;rounded=0;" parent="1" source="XG4ho2Jqd21ROxFTkD6N-1" target="XG4ho2Jqd21ROxFTkD6N-8" edge="1">
          <mxGeometry relative="1" as="geometry">
            <mxPoint x="-457" y="1191.39" as="sourcePoint" />
            <mxPoint x="-473" y="1268.39" as="targetPoint" />
          </mxGeometry>
        </mxCell>
        <mxCell id="XG4ho2Jqd21ROxFTkD6N-13" value="" style="endArrow=none;html=1;rounded=0;" parent="1" source="XG4ho2Jqd21ROxFTkD6N-1" target="XG4ho2Jqd21ROxFTkD6N-9" edge="1">
          <mxGeometry relative="1" as="geometry">
            <mxPoint x="-457" y="1191.39" as="sourcePoint" />
            <mxPoint x="-383" y="1281.39" as="targetPoint" />
          </mxGeometry>
        </mxCell>
        <mxCell id="XG4ho2Jqd21ROxFTkD6N-15" value="1" style="text;html=1;align=center;verticalAlign=middle;resizable=0;points=[];autosize=1;strokeColor=none;fillColor=none;" parent="1" vertex="1">
          <mxGeometry x="-459" y="1101.39" width="30" height="30" as="geometry" />
        </mxCell>
        <mxCell id="5XOgFynGAulwjWOohHZS-1" value="presentationGrade" style="ellipse;whiteSpace=wrap;html=1;align=center;" parent="1" vertex="1">
          <mxGeometry x="316.25" y="441.25" width="115" height="38" as="geometry" />
        </mxCell>
        <mxCell id="5XOgFynGAulwjWOohHZS-2" value="" style="endArrow=none;html=1;rounded=0;" parent="1" source="5XOgFynGAulwjWOohHZS-1" target="csQHXVmGijgFcGHTdfF5-2" edge="1">
          <mxGeometry relative="1" as="geometry">
            <mxPoint x="222" y="322" as="sourcePoint" />
            <mxPoint x="361" y="389" as="targetPoint" />
          </mxGeometry>
        </mxCell>
        <mxCell id="5XOgFynGAulwjWOohHZS-3" value="asignationID" style="ellipse;whiteSpace=wrap;html=1;align=center;fontStyle=4" parent="1" vertex="1">
          <mxGeometry x="-171" y="1000.1700000000001" width="125" height="40" as="geometry" />
        </mxCell>
        <mxCell id="5XOgFynGAulwjWOohHZS-4" value="" style="endArrow=none;html=1;rounded=0;entryX=0.5;entryY=1;entryDx=0;entryDy=0;" parent="1" source="5XOgFynGAulwjWOohHZS-3" target="Fi8ofQacymHmuX7G_40k-77" edge="1">
          <mxGeometry relative="1" as="geometry">
            <mxPoint x="-171.5" y="1004.72" as="sourcePoint" />
            <mxPoint x="-136.5" y="942.72" as="targetPoint" />
          </mxGeometry>
        </mxCell>
        <mxCell id="5XOgFynGAulwjWOohHZS-5" value="presentationID" style="ellipse;whiteSpace=wrap;html=1;align=center;fontStyle=4" parent="1" vertex="1">
          <mxGeometry x="274.5" y="510" width="115" height="38" as="geometry" />
        </mxCell>
        <mxCell id="5XOgFynGAulwjWOohHZS-6" value="" style="endArrow=none;html=1;rounded=0;" parent="1" source="5XOgFynGAulwjWOohHZS-5" target="csQHXVmGijgFcGHTdfF5-2" edge="1">
          <mxGeometry relative="1" as="geometry">
            <mxPoint x="218" y="369" as="sourcePoint" />
            <mxPoint x="331" y="399" as="targetPoint" />
          </mxGeometry>
        </mxCell>
        <mxCell id="5XOgFynGAulwjWOohHZS-7" value="1" style="text;html=1;align=center;verticalAlign=middle;resizable=0;points=[];autosize=1;strokeColor=none;fillColor=none;" parent="1" vertex="1">
          <mxGeometry x="-234" y="662" width="30" height="30" as="geometry" />
        </mxCell>
        <mxCell id="jJL7DWYdxZe0u-wJkCn3-1" value="role" style="ellipse;whiteSpace=wrap;html=1;align=center;" parent="1" vertex="1">
          <mxGeometry x="-101" y="580" width="100" height="40" as="geometry" />
        </mxCell>
        <mxCell id="jJL7DWYdxZe0u-wJkCn3-3" value="" style="endArrow=none;html=1;rounded=0;exitX=0.5;exitY=0;exitDx=0;exitDy=0;" parent="1" source="Fi8ofQacymHmuX7G_40k-93" target="jJL7DWYdxZe0u-wJkCn3-1" edge="1">
          <mxGeometry relative="1" as="geometry">
            <mxPoint x="-189" y="632" as="sourcePoint" />
            <mxPoint x="-79" y="593" as="targetPoint" />
          </mxGeometry>
        </mxCell>
        <mxCell id="jJL7DWYdxZe0u-wJkCn3-6" value="groupNRC" style="ellipse;whiteSpace=wrap;html=1;align=center;fontStyle=0" parent="1" vertex="1">
          <mxGeometry x="-391" y="568" width="100" height="40" as="geometry" />
        </mxCell>
        <mxCell id="jJL7DWYdxZe0u-wJkCn3-7" value="" style="endArrow=none;html=1;rounded=0;entryX=0.5;entryY=0;entryDx=0;entryDy=0;" parent="1" source="jJL7DWYdxZe0u-wJkCn3-6" target="Fi8ofQacymHmuX7G_40k-93" edge="1">
          <mxGeometry relative="1" as="geometry">
            <mxPoint x="-334" y="601" as="sourcePoint" />
            <mxPoint x="-239" y="710" as="targetPoint" />
          </mxGeometry>
        </mxCell>
        <mxCell id="jJL7DWYdxZe0u-wJkCn3-12" value="" style="endArrow=none;html=1;rounded=0;entryX=0;entryY=0.5;entryDx=0;entryDy=0;" parent="1" source="xrPmkfQYW-wAFW75Uiyl-3" target="rd2A1Y3XACHf0ovgt2Uq-9" edge="1">
          <mxGeometry relative="1" as="geometry">
            <mxPoint x="21.5" y="718.1400000000002" as="sourcePoint" />
            <mxPoint x="59.5" y="758.14" as="targetPoint" />
          </mxGeometry>
        </mxCell>
        <mxCell id="jJL7DWYdxZe0u-wJkCn3-13" value="1..*" style="text;html=1;align=center;verticalAlign=middle;resizable=0;points=[];autosize=1;strokeColor=none;fillColor=none;" parent="1" vertex="1">
          <mxGeometry x="-149" y="651.89" width="40" height="30" as="geometry" />
        </mxCell>
        <mxCell id="jJL7DWYdxZe0u-wJkCn3-14" value="" style="endArrow=none;html=1;rounded=0;exitX=0;exitY=0.5;exitDx=0;exitDy=0;entryX=1;entryY=0.5;entryDx=0;entryDy=0;" parent="1" source="Fi8ofQacymHmuX7G_40k-45" target="xrPmkfQYW-wAFW75Uiyl-7" edge="1">
          <mxGeometry relative="1" as="geometry">
            <mxPoint x="426" y="778" as="sourcePoint" />
            <mxPoint x="58" y="742" as="targetPoint" />
          </mxGeometry>
        </mxCell>
        <mxCell id="rd2A1Y3XACHf0ovgt2Uq-3" value="PositionsCatalog" style="whiteSpace=wrap;html=1;align=center;" parent="1" vertex="1">
          <mxGeometry x="-454" y="340" width="110" height="40" as="geometry" />
        </mxCell>
        <mxCell id="rd2A1Y3XACHf0ovgt2Uq-4" value="position" style="ellipse;whiteSpace=wrap;html=1;align=center;" parent="1" vertex="1">
          <mxGeometry x="-449" y="240" width="100" height="40" as="geometry" />
        </mxCell>
        <mxCell id="rd2A1Y3XACHf0ovgt2Uq-5" value="" style="endArrow=none;html=1;rounded=0;" parent="1" source="rd2A1Y3XACHf0ovgt2Uq-4" target="rd2A1Y3XACHf0ovgt2Uq-3" edge="1">
          <mxGeometry relative="1" as="geometry">
            <mxPoint x="-664" y="622" as="sourcePoint" />
            <mxPoint x="-488" y="490" as="targetPoint" />
          </mxGeometry>
        </mxCell>
        <mxCell id="rd2A1Y3XACHf0ovgt2Uq-6" value="SystemConfiguration" style="whiteSpace=wrap;html=1;align=center;" parent="1" vertex="1">
          <mxGeometry x="-616.5" y="340" width="122" height="40" as="geometry" />
        </mxCell>
        <mxCell id="rd2A1Y3XACHf0ovgt2Uq-7" value="projectRegistrationStatus" style="ellipse;whiteSpace=wrap;html=1;align=center;" parent="1" vertex="1">
          <mxGeometry x="-630" y="240" width="151" height="40" as="geometry" />
        </mxCell>
        <mxCell id="rd2A1Y3XACHf0ovgt2Uq-8" value="" style="endArrow=none;html=1;rounded=0;" parent="1" source="rd2A1Y3XACHf0ovgt2Uq-7" target="rd2A1Y3XACHf0ovgt2Uq-6" edge="1">
          <mxGeometry relative="1" as="geometry">
            <mxPoint x="-554.95" y="270" as="sourcePoint" />
            <mxPoint x="-554.95" y="330" as="targetPoint" />
          </mxGeometry>
        </mxCell>
        <mxCell id="rd2A1Y3XACHf0ovgt2Uq-9" value="Section" style="whiteSpace=wrap;html=1;align=center;" parent="1" vertex="1">
          <mxGeometry x="76.5" y="736.14" width="100" height="40" as="geometry" />
        </mxCell>
        <mxCell id="rd2A1Y3XACHf0ovgt2Uq-10" value="period" style="ellipse;whiteSpace=wrap;html=1;align=center;" parent="1" vertex="1">
          <mxGeometry x="171.5" y="810.1400000000001" width="100" height="40" as="geometry" />
        </mxCell>
        <mxCell id="rd2A1Y3XACHf0ovgt2Uq-11" value="" style="endArrow=none;html=1;rounded=0;entryX=0.5;entryY=1;entryDx=0;entryDy=0;" parent="1" source="rd2A1Y3XACHf0ovgt2Uq-10" target="rd2A1Y3XACHf0ovgt2Uq-9" edge="1">
          <mxGeometry relative="1" as="geometry">
            <mxPoint x="-49.5" y="1178.8500000000001" as="sourcePoint" />
            <mxPoint x="126.5" y="736.14" as="targetPoint" />
          </mxGeometry>
        </mxCell>
        <mxCell id="xrPmkfQYW-wAFW75Uiyl-1" value="sectionID" style="ellipse;whiteSpace=wrap;html=1;align=center;fontStyle=4" parent="1" vertex="1">
          <mxGeometry y="800.14" width="100" height="40" as="geometry" />
        </mxCell>
        <mxCell id="xrPmkfQYW-wAFW75Uiyl-2" value="" style="endArrow=none;html=1;rounded=0;entryX=0.5;entryY=1;entryDx=0;entryDy=0;" parent="1" source="xrPmkfQYW-wAFW75Uiyl-1" target="rd2A1Y3XACHf0ovgt2Uq-9" edge="1">
          <mxGeometry relative="1" as="geometry">
            <mxPoint x="71.19596492895835" y="731.2329006003607" as="sourcePoint" />
            <mxPoint x="126.5" y="756.14" as="targetPoint" />
          </mxGeometry>
        </mxCell>
        <mxCell id="xrPmkfQYW-wAFW75Uiyl-4" value="" style="endArrow=none;html=1;rounded=0;entryX=0;entryY=0.5;entryDx=0;entryDy=0;exitX=1;exitY=1;exitDx=0;exitDy=0;" parent="1" source="Fi8ofQacymHmuX7G_40k-93" target="xrPmkfQYW-wAFW75Uiyl-3" edge="1">
          <mxGeometry relative="1" as="geometry">
            <mxPoint x="-320" y="652" as="sourcePoint" />
            <mxPoint x="-45" y="740" as="targetPoint" />
          </mxGeometry>
        </mxCell>
        <mxCell id="xrPmkfQYW-wAFW75Uiyl-3" value="Participates in" style="shape=rhombus;perimeter=rhombusPerimeter;whiteSpace=wrap;html=1;align=center;" parent="1" vertex="1">
          <mxGeometry x="-101" y="726.14" width="120" height="60" as="geometry" />
        </mxCell>
        <mxCell id="xrPmkfQYW-wAFW75Uiyl-5" value="1..*" style="text;html=1;align=center;verticalAlign=middle;resizable=0;points=[];autosize=1;strokeColor=none;fillColor=none;" parent="1" vertex="1">
          <mxGeometry x="36.5" y="726" width="40" height="30" as="geometry" />
        </mxCell>
        <mxCell id="xrPmkfQYW-wAFW75Uiyl-6" value="1..*" style="text;html=1;align=center;verticalAlign=middle;resizable=0;points=[];autosize=1;strokeColor=none;fillColor=none;" parent="1" vertex="1">
          <mxGeometry x="171.5" y="726.14" width="40" height="30" as="geometry" />
        </mxCell>
        <mxCell id="xrPmkfQYW-wAFW75Uiyl-7" value="Participates in" style="shape=rhombus;perimeter=rhombusPerimeter;whiteSpace=wrap;html=1;align=center;" parent="1" vertex="1">
          <mxGeometry x="311" y="725" width="120" height="60" as="geometry" />
        </mxCell>
        <mxCell id="xrPmkfQYW-wAFW75Uiyl-8" value="" style="endArrow=none;html=1;rounded=0;" parent="1" source="rd2A1Y3XACHf0ovgt2Uq-9" target="xrPmkfQYW-wAFW75Uiyl-7" edge="1">
          <mxGeometry relative="1" as="geometry">
            <mxPoint x="455" y="866" as="sourcePoint" />
            <mxPoint x="241" y="798" as="targetPoint" />
          </mxGeometry>
        </mxCell>
        <mxCell id="_4FeL78g5QBhpt_2OUHE-1" style="edgeStyle=orthogonalEdgeStyle;rounded=0;orthogonalLoop=1;jettySize=auto;html=1;exitX=0.5;exitY=1;exitDx=0;exitDy=0;" parent="1" source="xrPmkfQYW-wAFW75Uiyl-1" target="xrPmkfQYW-wAFW75Uiyl-1" edge="1">
          <mxGeometry relative="1" as="geometry" />
        </mxCell>
        <mxCell id="_4FeL78g5QBhpt_2OUHE-2" value="nrc" style="ellipse;whiteSpace=wrap;html=1;align=center;" parent="1" vertex="1">
          <mxGeometry x="76.5" y="852.1400000000001" width="100" height="40" as="geometry" />
        </mxCell>
        <mxCell id="_4FeL78g5QBhpt_2OUHE-3" value="" style="endArrow=none;html=1;rounded=0;entryX=0.5;entryY=1;entryDx=0;entryDy=0;" parent="1" source="_4FeL78g5QBhpt_2OUHE-2" target="rd2A1Y3XACHf0ovgt2Uq-9" edge="1">
          <mxGeometry relative="1" as="geometry">
            <mxPoint x="202.5" y="824.14" as="sourcePoint" />
            <mxPoint x="136.5" y="786.14" as="targetPoint" />
          </mxGeometry>
        </mxCell>
        <mxCell id="Fi8ofQacymHmuX7G_40k-49" value="creditAdvance" style="ellipse;whiteSpace=wrap;html=1;align=center;" parent="1" vertex="1">
          <mxGeometry x="740" y="867.28" width="100" height="40" as="geometry" />
        </mxCell>
        <mxCell id="Fi8ofQacymHmuX7G_40k-202" value="tuition" style="ellipse;whiteSpace=wrap;html=1;align=center;fontStyle=0" parent="1" vertex="1">
          <mxGeometry x="827" y="916.14" width="100" height="40" as="geometry" />
        </mxCell>
        <mxCell id="Fi8ofQacymHmuX7G_40k-234" value="userName" style="ellipse;whiteSpace=wrap;html=1;align=center;" parent="1" vertex="1">
          <mxGeometry x="760" y="983.22" width="100" height="40" as="geometry" />
        </mxCell>
        <mxCell id="0Eedv40d4Fr8evlQOtKH-5" value="firstSurname" style="ellipse;whiteSpace=wrap;html=1;align=center;" parent="1" vertex="1">
          <mxGeometry x="840" y="770.14" width="100" height="40" as="geometry" />
        </mxCell>
        <mxCell id="0Eedv40d4Fr8evlQOtKH-6" value="secondSurname" style="ellipse;whiteSpace=wrap;html=1;align=center;" parent="1" vertex="1">
          <mxGeometry x="810" y="816.14" width="100" height="40" as="geometry" />
        </mxCell>
        <mxCell id="0Eedv40d4Fr8evlQOtKH-7" value="name" style="ellipse;whiteSpace=wrap;html=1;align=center;" parent="1" vertex="1">
          <mxGeometry x="580.5" y="776.14" width="100" height="40" as="geometry" />
        </mxCell>
        <mxCell id="0Eedv40d4Fr8evlQOtKH-8" value="" style="endArrow=none;html=1;rounded=0;" parent="1" source="Fi8ofQacymHmuX7G_40k-45" target="0Eedv40d4Fr8evlQOtKH-7" edge="1">
          <mxGeometry relative="1" as="geometry">
            <mxPoint x="505" y="846" as="sourcePoint" />
            <mxPoint x="413" y="828" as="targetPoint" />
          </mxGeometry>
        </mxCell>
        <mxCell id="0Eedv40d4Fr8evlQOtKH-9" value="" style="endArrow=none;html=1;rounded=0;" parent="1" source="Fi8ofQacymHmuX7G_40k-45" target="0Eedv40d4Fr8evlQOtKH-5" edge="1">
          <mxGeometry relative="1" as="geometry">
            <mxPoint x="505" y="846" as="sourcePoint" />
            <mxPoint x="330" y="756" as="targetPoint" />
          </mxGeometry>
        </mxCell>
        <mxCell id="0Eedv40d4Fr8evlQOtKH-10" value="" style="endArrow=none;html=1;rounded=0;" parent="1" source="Fi8ofQacymHmuX7G_40k-45" target="0Eedv40d4Fr8evlQOtKH-6" edge="1">
          <mxGeometry relative="1" as="geometry">
            <mxPoint x="457" y="806" as="sourcePoint" />
            <mxPoint x="285" y="716" as="targetPoint" />
          </mxGeometry>
        </mxCell>
        <mxCell id="Fi8ofQacymHmuX7G_40k-60" value="Report" style="whiteSpace=wrap;html=1;align=center;" parent="1" vertex="1">
          <mxGeometry x="431" y="1168.9999999999998" width="100" height="40" as="geometry" />
        </mxCell>
        <mxCell id="Fi8ofQacymHmuX7G_40k-61" value="date" style="ellipse;whiteSpace=wrap;html=1;align=center;" parent="1" vertex="1">
          <mxGeometry x="550" y="1305.3899999999999" width="100" height="40" as="geometry" />
        </mxCell>
        <mxCell id="Fi8ofQacymHmuX7G_40k-62" value="hours" style="ellipse;whiteSpace=wrap;html=1;align=center;" parent="1" vertex="1">
          <mxGeometry x="431.25" y="1305.3899999999999" width="100" height="40" as="geometry" />
        </mxCell>
        <mxCell id="Fi8ofQacymHmuX7G_40k-65" value="type" style="ellipse;whiteSpace=wrap;html=1;align=center;" parent="1" vertex="1">
          <mxGeometry x="514.5" y="1359.9999999999998" width="100" height="40" as="geometry" />
        </mxCell>
        <mxCell id="Fi8ofQacymHmuX7G_40k-66" value="studentId" style="ellipse;whiteSpace=wrap;html=1;align=center;" parent="1" vertex="1">
          <mxGeometry x="289.5" y="1287.8899999999999" width="100" height="40" as="geometry" />
        </mxCell>
        <mxCell id="Fi8ofQacymHmuX7G_40k-73" value="uploads" style="shape=rhombus;perimeter=rhombusPerimeter;whiteSpace=wrap;html=1;align=center;" parent="1" vertex="1">
          <mxGeometry x="421" y="994" width="120" height="60" as="geometry" />
        </mxCell>
        <mxCell id="Fi8ofQacymHmuX7G_40k-74" value="" style="endArrow=none;html=1;rounded=0;entryX=0.5;entryY=0;entryDx=0;entryDy=0;exitX=0.5;exitY=1;exitDx=0;exitDy=0;" parent="1" source="Fi8ofQacymHmuX7G_40k-45" target="Fi8ofQacymHmuX7G_40k-73" edge="1">
          <mxGeometry relative="1" as="geometry">
            <mxPoint x="46" y="1008.14" as="sourcePoint" />
            <mxPoint x="466" y="898.14" as="targetPoint" />
          </mxGeometry>
        </mxCell>
        <mxCell id="Fi8ofQacymHmuX7G_40k-75" value="" style="endArrow=none;html=1;rounded=0;exitX=0.5;exitY=1;exitDx=0;exitDy=0;entryX=0.5;entryY=0;entryDx=0;entryDy=0;" parent="1" source="Fi8ofQacymHmuX7G_40k-73" target="Fi8ofQacymHmuX7G_40k-60" edge="1">
          <mxGeometry relative="1" as="geometry">
            <mxPoint x="282" y="1077.8899999999999" as="sourcePoint" />
            <mxPoint x="172" y="1087.8899999999999" as="targetPoint" />
          </mxGeometry>
        </mxCell>
        <mxCell id="Fi8ofQacymHmuX7G_40k-180" value="" style="endArrow=none;html=1;rounded=0;exitX=0.5;exitY=1;exitDx=0;exitDy=0;" parent="1" source="Fi8ofQacymHmuX7G_40k-60" target="Fi8ofQacymHmuX7G_40k-63" edge="1">
          <mxGeometry relative="1" as="geometry">
            <mxPoint x="-24.75" y="1182.3899999999999" as="sourcePoint" />
            <mxPoint x="372.41778152035386" y="1250.673237257729" as="targetPoint" />
          </mxGeometry>
        </mxCell>
        <mxCell id="Fi8ofQacymHmuX7G_40k-181" value="" style="endArrow=none;html=1;rounded=0;exitX=0.5;exitY=1;exitDx=0;exitDy=0;" parent="1" source="Fi8ofQacymHmuX7G_40k-60" target="Fi8ofQacymHmuX7G_40k-66" edge="1">
          <mxGeometry relative="1" as="geometry">
            <mxPoint x="493.25" y="1218.3899999999999" as="sourcePoint" />
            <mxPoint x="326.4667828223169" y="1271.1926582339347" as="targetPoint" />
          </mxGeometry>
        </mxCell>
        <mxCell id="Fi8ofQacymHmuX7G_40k-182" value="" style="endArrow=none;html=1;rounded=0;exitX=0.5;exitY=1;exitDx=0;exitDy=0;" parent="1" source="Fi8ofQacymHmuX7G_40k-60" target="Fi8ofQacymHmuX7G_40k-62" edge="1">
          <mxGeometry relative="1" as="geometry">
            <mxPoint x="493.25" y="1218.3899999999999" as="sourcePoint" />
            <mxPoint x="403.25" y="1311.3899999999999" as="targetPoint" />
          </mxGeometry>
        </mxCell>
        <mxCell id="Fi8ofQacymHmuX7G_40k-183" value="" style="endArrow=none;html=1;rounded=0;exitX=0.5;exitY=1;exitDx=0;exitDy=0;" parent="1" source="Fi8ofQacymHmuX7G_40k-60" target="Fi8ofQacymHmuX7G_40k-65" edge="1">
          <mxGeometry relative="1" as="geometry">
            <mxPoint x="485.25" y="1218.3899999999999" as="sourcePoint" />
            <mxPoint x="423.25" y="1355.3899999999999" as="targetPoint" />
          </mxGeometry>
        </mxCell>
        <mxCell id="Fi8ofQacymHmuX7G_40k-185" value="" style="endArrow=none;html=1;rounded=0;exitX=0.5;exitY=1;exitDx=0;exitDy=0;" parent="1" source="Fi8ofQacymHmuX7G_40k-60" target="Fi8ofQacymHmuX7G_40k-61" edge="1">
          <mxGeometry relative="1" as="geometry">
            <mxPoint x="493.25" y="1218.3899999999999" as="sourcePoint" />
            <mxPoint x="591.25" y="1315.3899999999999" as="targetPoint" />
          </mxGeometry>
        </mxCell>
        <mxCell id="Fi8ofQacymHmuX7G_40k-213" value="1..*" style="text;html=1;align=center;verticalAlign=middle;resizable=0;points=[];autosize=1;strokeColor=none;fillColor=none;" parent="1" vertex="1">
          <mxGeometry x="391" y="877.28" width="40" height="30" as="geometry" />
        </mxCell>
        <mxCell id="Fi8ofQacymHmuX7G_40k-214" value="1..*" style="text;html=1;align=center;verticalAlign=middle;resizable=0;points=[];autosize=1;strokeColor=none;fillColor=none;" parent="1" vertex="1">
          <mxGeometry x="449.5" y="926.14" width="40" height="30" as="geometry" />
        </mxCell>
        <mxCell id="Fi8ofQacymHmuX7G_40k-215" value="1" style="text;html=1;align=center;verticalAlign=middle;resizable=0;points=[];autosize=1;strokeColor=none;fillColor=none;" parent="1" vertex="1">
          <mxGeometry x="482" y="1138.9999999999998" width="30" height="30" as="geometry" />
        </mxCell>
        <mxCell id="0Eedv40d4Fr8evlQOtKH-1" value="period" style="ellipse;whiteSpace=wrap;html=1;align=center;" parent="1" vertex="1">
          <mxGeometry x="580.5" y="1247.8899999999999" width="100" height="40" as="geometry" />
        </mxCell>
        <mxCell id="0Eedv40d4Fr8evlQOtKH-4" value="" style="endArrow=none;html=1;rounded=0;exitX=0.5;exitY=1;exitDx=0;exitDy=0;" parent="1" source="Fi8ofQacymHmuX7G_40k-60" target="0Eedv40d4Fr8evlQOtKH-1" edge="1">
          <mxGeometry relative="1" as="geometry">
            <mxPoint x="493.25" y="1218.3899999999999" as="sourcePoint" />
            <mxPoint x="614.25" y="1281.3899999999999" as="targetPoint" />
          </mxGeometry>
        </mxCell>
        <mxCell id="iVjMamBYIFj6iKSleG_u-2" value="reportPath" style="ellipse;whiteSpace=wrap;html=1;align=center;" parent="1" vertex="1">
          <mxGeometry x="340" y="1329.9999999999998" width="100" height="38" as="geometry" />
        </mxCell>
        <mxCell id="iVjMamBYIFj6iKSleG_u-5" value="" style="endArrow=none;html=1;rounded=0;exitX=0.5;exitY=1;exitDx=0;exitDy=0;" parent="1" source="Fi8ofQacymHmuX7G_40k-60" target="iVjMamBYIFj6iKSleG_u-2" edge="1">
          <mxGeometry relative="1" as="geometry">
            <mxPoint x="553.25" y="1065.3899999999999" as="sourcePoint" />
            <mxPoint x="601.25" y="1103.3899999999999" as="targetPoint" />
          </mxGeometry>
        </mxCell>
        <mxCell id="jJL7DWYdxZe0u-wJkCn3-15" value="1..*" style="text;html=1;align=center;verticalAlign=middle;resizable=0;points=[];autosize=1;strokeColor=none;fillColor=none;" parent="1" vertex="1">
          <mxGeometry x="396" y="840.14" width="40" height="30" as="geometry" />
        </mxCell>
        <mxCell id="Fi8ofQacymHmuX7G_40k-45" value="Student" style="whiteSpace=wrap;html=1;align=center;" parent="1" vertex="1">
          <mxGeometry x="431" y="886.14" width="100" height="40" as="geometry" />
        </mxCell>
        <mxCell id="Fi8ofQacymHmuX7G_40k-55" value="studentID" style="ellipse;whiteSpace=wrap;html=1;align=center;fontStyle=4" parent="1" vertex="1">
          <mxGeometry x="770" y="1047.14" width="100" height="40" as="geometry" />
        </mxCell>
        <mxCell id="Fi8ofQacymHmuX7G_40k-56" value="" style="endArrow=none;html=1;rounded=0;" parent="1" source="Fi8ofQacymHmuX7G_40k-45" target="Fi8ofQacymHmuX7G_40k-49" edge="1">
          <mxGeometry relative="1" as="geometry">
            <mxPoint x="543" y="876.14" as="sourcePoint" />
            <mxPoint x="612.8866071160519" y="874.2690501353851" as="targetPoint" />
          </mxGeometry>
        </mxCell>
        <mxCell id="Fi8ofQacymHmuX7G_40k-59" value="" style="endArrow=none;html=1;rounded=0;" parent="1" source="Fi8ofQacymHmuX7G_40k-45" target="Fi8ofQacymHmuX7G_40k-55" edge="1">
          <mxGeometry relative="1" as="geometry">
            <mxPoint x="543" y="896.14" as="sourcePoint" />
            <mxPoint x="643" y="1066.1399999999999" as="targetPoint" />
          </mxGeometry>
        </mxCell>
        <mxCell id="Fi8ofQacymHmuX7G_40k-203" value="" style="endArrow=none;html=1;rounded=0;" parent="1" source="Fi8ofQacymHmuX7G_40k-45" target="Fi8ofQacymHmuX7G_40k-202" edge="1">
          <mxGeometry relative="1" as="geometry">
            <mxPoint x="466" y="896.14" as="sourcePoint" />
            <mxPoint x="727" y="886" as="targetPoint" />
          </mxGeometry>
        </mxCell>
        <mxCell id="Fi8ofQacymHmuX7G_40k-235" value="password" style="ellipse;whiteSpace=wrap;html=1;align=center;" parent="1" vertex="1">
          <mxGeometry x="710" y="936" width="100" height="40" as="geometry" />
        </mxCell>
        <mxCell id="Fi8ofQacymHmuX7G_40k-236" value="" style="endArrow=none;html=1;rounded=0;" parent="1" source="Fi8ofQacymHmuX7G_40k-45" target="Fi8ofQacymHmuX7G_40k-235" edge="1">
          <mxGeometry relative="1" as="geometry">
            <mxPoint x="466" y="896.14" as="sourcePoint" />
            <mxPoint x="655.7921885094129" y="736.2517806160489" as="targetPoint" />
          </mxGeometry>
        </mxCell>
        <mxCell id="Fi8ofQacymHmuX7G_40k-237" value="" style="endArrow=none;html=1;rounded=0;" parent="1" source="Fi8ofQacymHmuX7G_40k-45" target="Fi8ofQacymHmuX7G_40k-234" edge="1">
          <mxGeometry relative="1" as="geometry">
            <mxPoint x="491" y="896.14" as="sourcePoint" />
            <mxPoint x="718.379361192377" y="953.9756011400315" as="targetPoint" />
          </mxGeometry>
        </mxCell>
        <mxCell id="jJL7DWYdxZe0u-wJkCn3-8" value="sectionID" style="ellipse;whiteSpace=wrap;html=1;align=center;fontStyle=0" parent="1" vertex="1">
          <mxGeometry x="641" y="1080.17" width="100" height="40" as="geometry" />
        </mxCell>
        <mxCell id="jJL7DWYdxZe0u-wJkCn3-10" value="" style="endArrow=none;html=1;rounded=0;" parent="1" source="Fi8ofQacymHmuX7G_40k-45" target="jJL7DWYdxZe0u-wJkCn3-8" edge="1">
          <mxGeometry relative="1" as="geometry">
            <mxPoint x="491" y="896.14" as="sourcePoint" />
            <mxPoint x="696" y="830.14" as="targetPoint" />
          </mxGeometry>
        </mxCell>
        <mxCell id="Fi8ofQacymHmuX7G_40k-248" value="1..*" style="text;html=1;align=center;verticalAlign=middle;resizable=0;points=[];autosize=1;strokeColor=none;fillColor=none;" parent="1" vertex="1">
          <mxGeometry x="391" y="643" width="40" height="30" as="geometry" />
        </mxCell>
        <mxCell id="_4FeL78g5QBhpt_2OUHE-10" value="ReportTypeCatalog" style="whiteSpace=wrap;html=1;align=center;" parent="1" vertex="1">
          <mxGeometry x="1020" y="1167.89" width="111.5" height="40" as="geometry" />
        </mxCell>
        <mxCell id="_4FeL78g5QBhpt_2OUHE-11" value="uploads" style="shape=rhombus;perimeter=rhombusPerimeter;whiteSpace=wrap;html=1;align=center;" parent="1" vertex="1">
          <mxGeometry x="780" y="1157.89" width="120" height="60" as="geometry" />
        </mxCell>
        <mxCell id="_4FeL78g5QBhpt_2OUHE-12" value="" style="endArrow=none;html=1;rounded=0;" parent="1" source="Fi8ofQacymHmuX7G_40k-60" target="_4FeL78g5QBhpt_2OUHE-11" edge="1">
          <mxGeometry relative="1" as="geometry">
            <mxPoint x="491" y="1064" as="sourcePoint" />
            <mxPoint x="491" y="1148" as="targetPoint" />
          </mxGeometry>
        </mxCell>
        <mxCell id="_4FeL78g5QBhpt_2OUHE-13" value="" style="endArrow=none;html=1;rounded=0;" parent="1" source="_4FeL78g5QBhpt_2OUHE-10" target="_4FeL78g5QBhpt_2OUHE-11" edge="1">
          <mxGeometry relative="1" as="geometry">
            <mxPoint x="441" y="1168" as="sourcePoint" />
            <mxPoint x="360" y="1168" as="targetPoint" />
          </mxGeometry>
        </mxCell>
        <mxCell id="_4FeL78g5QBhpt_2OUHE-14" value="1..*" style="text;html=1;align=center;verticalAlign=middle;resizable=0;points=[];autosize=1;strokeColor=none;fillColor=none;" parent="1" vertex="1">
          <mxGeometry x="531.25" y="1162.28" width="40" height="30" as="geometry" />
        </mxCell>
        <mxCell id="_4FeL78g5QBhpt_2OUHE-15" value="1" style="text;html=1;align=center;verticalAlign=middle;resizable=0;points=[];autosize=1;strokeColor=none;fillColor=none;" parent="1" vertex="1">
          <mxGeometry x="990" y="1157.8899999999999" width="30" height="30" as="geometry" />
        </mxCell>
        <mxCell id="sPjAE9Zq2e5NtmabV1AZ-1" value="grade" style="ellipse;whiteSpace=wrap;html=1;align=center;fontStyle=0" parent="1" vertex="1">
          <mxGeometry x="650" y="1025.39" width="100" height="40" as="geometry" />
        </mxCell>
        <mxCell id="sPjAE9Zq2e5NtmabV1AZ-2" value="" style="endArrow=none;html=1;rounded=0;" parent="1" source="Fi8ofQacymHmuX7G_40k-45" target="sPjAE9Zq2e5NtmabV1AZ-1" edge="1">
          <mxGeometry relative="1" as="geometry">
            <mxPoint x="512" y="936" as="sourcePoint" />
            <mxPoint x="620" y="1037" as="targetPoint" />
          </mxGeometry>
        </mxCell>
        <mxCell id="sPjAE9Zq2e5NtmabV1AZ-5" value="grade" style="ellipse;whiteSpace=wrap;html=1;align=center;fontStyle=0" parent="1" vertex="1">
          <mxGeometry x="541" y="1051.39" width="100" height="40" as="geometry" />
        </mxCell>
        <mxCell id="sPjAE9Zq2e5NtmabV1AZ-6" value="" style="endArrow=none;html=1;rounded=0;" parent="1" source="Fi8ofQacymHmuX7G_40k-45" target="sPjAE9Zq2e5NtmabV1AZ-5" edge="1">
          <mxGeometry relative="1" as="geometry">
            <mxPoint x="515" y="936" as="sourcePoint" />
            <mxPoint x="726" y="1113" as="targetPoint" />
          </mxGeometry>
        </mxCell>
        <mxCell id="sPjAE9Zq2e5NtmabV1AZ-7" value="StudentProgress" style="whiteSpace=wrap;html=1;align=center;" parent="1" vertex="1">
          <mxGeometry x="740" y="603" width="100" height="40" as="geometry" />
        </mxCell>
        <mxCell id="sPjAE9Zq2e5NtmabV1AZ-8" value="remainingHours" style="ellipse;whiteSpace=wrap;html=1;align=center;" parent="1" vertex="1">
          <mxGeometry x="670" y="496" width="100" height="40" as="geometry" />
        </mxCell>
        <mxCell id="sPjAE9Zq2e5NtmabV1AZ-9" value="validatedHours" style="ellipse;whiteSpace=wrap;html=1;align=center;" parent="1" vertex="1">
          <mxGeometry x="750" y="465" width="100" height="40" as="geometry" />
        </mxCell>
        <mxCell id="sPjAE9Zq2e5NtmabV1AZ-10" value="studentTuition" style="ellipse;whiteSpace=wrap;html=1;align=center;" parent="1" vertex="1">
          <mxGeometry x="810" y="517.25" width="100" height="40" as="geometry" />
        </mxCell>
        <mxCell id="sPjAE9Zq2e5NtmabV1AZ-11" value="studentProgressID" style="ellipse;whiteSpace=wrap;html=1;align=center;fontStyle=4" parent="1" vertex="1">
          <mxGeometry x="640" y="543" width="100" height="40" as="geometry" />
        </mxCell>
        <mxCell id="sPjAE9Zq2e5NtmabV1AZ-12" value="" style="endArrow=none;html=1;rounded=0;" parent="1" source="sPjAE9Zq2e5NtmabV1AZ-11" target="sPjAE9Zq2e5NtmabV1AZ-7" edge="1">
          <mxGeometry relative="1" as="geometry">
            <mxPoint x="720" y="539.14" as="sourcePoint" />
            <mxPoint x="831" y="368.14" as="targetPoint" />
          </mxGeometry>
        </mxCell>
        <mxCell id="sPjAE9Zq2e5NtmabV1AZ-13" value="" style="endArrow=none;html=1;rounded=0;" parent="1" source="sPjAE9Zq2e5NtmabV1AZ-10" target="sPjAE9Zq2e5NtmabV1AZ-7" edge="1">
          <mxGeometry relative="1" as="geometry">
            <mxPoint x="915" y="359" as="sourcePoint" />
            <mxPoint x="860" y="348" as="targetPoint" />
          </mxGeometry>
        </mxCell>
        <mxCell id="sPjAE9Zq2e5NtmabV1AZ-14" value="" style="endArrow=none;html=1;rounded=0;" parent="1" source="sPjAE9Zq2e5NtmabV1AZ-9" target="sPjAE9Zq2e5NtmabV1AZ-7" edge="1">
          <mxGeometry relative="1" as="geometry">
            <mxPoint x="954" y="311" as="sourcePoint" />
            <mxPoint x="860" y="329" as="targetPoint" />
          </mxGeometry>
        </mxCell>
        <mxCell id="sPjAE9Zq2e5NtmabV1AZ-16" value="" style="endArrow=none;html=1;rounded=0;" parent="1" source="sPjAE9Zq2e5NtmabV1AZ-8" target="sPjAE9Zq2e5NtmabV1AZ-7" edge="1">
          <mxGeometry relative="1" as="geometry">
            <mxPoint x="950" y="250" as="sourcePoint" />
            <mxPoint x="842" y="318" as="targetPoint" />
          </mxGeometry>
        </mxCell>
        <mxCell id="sPjAE9Zq2e5NtmabV1AZ-19" value="has" style="shape=rhombus;perimeter=rhombusPerimeter;whiteSpace=wrap;html=1;align=center;" parent="1" vertex="1">
          <mxGeometry x="550" y="700.14" width="120" height="60" as="geometry" />
        </mxCell>
        <mxCell id="sPjAE9Zq2e5NtmabV1AZ-21" value="" style="endArrow=none;html=1;rounded=0;" parent="1" source="Fi8ofQacymHmuX7G_40k-45" target="sPjAE9Zq2e5NtmabV1AZ-19" edge="1">
          <mxGeometry relative="1" as="geometry">
            <mxPoint x="491" y="896" as="sourcePoint" />
            <mxPoint x="491" y="683" as="targetPoint" />
          </mxGeometry>
        </mxCell>
        <mxCell id="sPjAE9Zq2e5NtmabV1AZ-23" value="" style="endArrow=none;html=1;rounded=0;" parent="1" source="sPjAE9Zq2e5NtmabV1AZ-7" target="sPjAE9Zq2e5NtmabV1AZ-19" edge="1">
          <mxGeometry relative="1" as="geometry">
            <mxPoint x="506" y="789" as="sourcePoint" />
            <mxPoint x="669.9068116263593" y="623.0934058131795" as="targetPoint" />
          </mxGeometry>
        </mxCell>
        <mxCell id="sPjAE9Zq2e5NtmabV1AZ-24" value="1" style="text;html=1;align=center;verticalAlign=middle;resizable=0;points=[];autosize=1;strokeColor=none;fillColor=none;" parent="1" vertex="1">
          <mxGeometry x="490" y="846" width="30" height="30" as="geometry" />
        </mxCell>
        <mxCell id="sPjAE9Zq2e5NtmabV1AZ-25" value="1" style="text;html=1;align=center;verticalAlign=middle;resizable=0;points=[];autosize=1;strokeColor=none;fillColor=none;" parent="1" vertex="1">
          <mxGeometry x="750" y="642" width="30" height="30" as="geometry" />
        </mxCell>
        <mxCell id="sPjAE9Zq2e5NtmabV1AZ-26" value="linkedOrganizationId" style="ellipse;whiteSpace=wrap;html=1;align=center;" parent="1" vertex="1">
          <mxGeometry x="-316.25" y="1177.89" width="126.25" height="40" as="geometry" />
        </mxCell>
        <mxCell id="sPjAE9Zq2e5NtmabV1AZ-27" value="" style="endArrow=none;html=1;rounded=0;" parent="1" source="XG4ho2Jqd21ROxFTkD6N-1" target="sPjAE9Zq2e5NtmabV1AZ-26" edge="1">
          <mxGeometry relative="1" as="geometry">
            <mxPoint x="-410" y="1160" as="sourcePoint" />
            <mxPoint x="-368" y="1230" as="targetPoint" />
          </mxGeometry>
        </mxCell>
        <mxCell id="sPjAE9Zq2e5NtmabV1AZ-28" value="projectId" style="ellipse;whiteSpace=wrap;html=1;align=center;fontStyle=0" parent="1" vertex="1">
          <mxGeometry x="-720" y="1245.39" width="130" height="40" as="geometry" />
        </mxCell>
        <mxCell id="sPjAE9Zq2e5NtmabV1AZ-29" value="" style="endArrow=none;html=1;rounded=0;" parent="1" source="XG4ho2Jqd21ROxFTkD6N-1" target="sPjAE9Zq2e5NtmabV1AZ-28" edge="1">
          <mxGeometry relative="1" as="geometry">
            <mxPoint x="-458" y="1181" as="sourcePoint" />
            <mxPoint x="-499" y="1256" as="targetPoint" />
          </mxGeometry>
        </mxCell>
        <mxCell id="sPjAE9Zq2e5NtmabV1AZ-30" value="status" style="ellipse;whiteSpace=wrap;html=1;align=center;" parent="1" vertex="1">
          <mxGeometry x="-617" y="633" width="100" height="40" as="geometry" />
        </mxCell>
        <mxCell id="sPjAE9Zq2e5NtmabV1AZ-31" value="" style="endArrow=none;html=1;rounded=0;" parent="1" source="Fi8ofQacymHmuX7G_40k-76" target="sPjAE9Zq2e5NtmabV1AZ-30" edge="1">
          <mxGeometry relative="1" as="geometry">
            <mxPoint x="-450" y="910" as="sourcePoint" />
            <mxPoint x="-576" y="745" as="targetPoint" />
          </mxGeometry>
        </mxCell>
        <mxCell id="sPjAE9Zq2e5NtmabV1AZ-32" value="documentInfoPath" style="ellipse;whiteSpace=wrap;html=1;align=center;" parent="1" vertex="1">
          <mxGeometry x="-479" y="651.89" width="135" height="44.25" as="geometry" />
        </mxCell>
        <mxCell id="sPjAE9Zq2e5NtmabV1AZ-33" value="" style="endArrow=none;html=1;rounded=0;" parent="1" source="Fi8ofQacymHmuX7G_40k-76" target="sPjAE9Zq2e5NtmabV1AZ-32" edge="1">
          <mxGeometry relative="1" as="geometry">
            <mxPoint x="-460" y="900" as="sourcePoint" />
            <mxPoint x="-435" y="656" as="targetPoint" />
          </mxGeometry>
        </mxCell>
        <mxCell id="sPjAE9Zq2e5NtmabV1AZ-34" value="period" style="ellipse;whiteSpace=wrap;html=1;align=center;" parent="1" vertex="1">
          <mxGeometry x="-685" y="866" width="95" height="40" as="geometry" />
        </mxCell>
        <mxCell id="sPjAE9Zq2e5NtmabV1AZ-35" value="" style="endArrow=none;html=1;rounded=0;" parent="1" source="Fi8ofQacymHmuX7G_40k-76" target="sPjAE9Zq2e5NtmabV1AZ-34" edge="1">
          <mxGeometry relative="1" as="geometry">
            <mxPoint x="-497" y="896" as="sourcePoint" />
            <mxPoint x="-603" y="854" as="targetPoint" />
          </mxGeometry>
        </mxCell>
        <mxCell id="csQHXVmGijgFcGHTdfF5-2" value="Presentation" style="whiteSpace=wrap;html=1;align=center;" parent="1" vertex="1">
          <mxGeometry x="431" y="624.25" width="100" height="40" as="geometry" />
        </mxCell>
        <mxCell id="csQHXVmGijgFcGHTdfF5-3" value="" style="endArrow=none;html=1;rounded=0;" parent="1" source="csQHXVmGijgFcGHTdfF5-4" target="csQHXVmGijgFcGHTdfF5-2" edge="1">
          <mxGeometry relative="1" as="geometry">
            <mxPoint x="506" y="896" as="sourcePoint" />
            <mxPoint x="712" y="615" as="targetPoint" />
          </mxGeometry>
        </mxCell>
        <mxCell id="csQHXVmGijgFcGHTdfF5-5" value="" style="endArrow=none;html=1;rounded=0;" parent="1" source="Fi8ofQacymHmuX7G_40k-45" target="csQHXVmGijgFcGHTdfF5-4" edge="1">
          <mxGeometry relative="1" as="geometry">
            <mxPoint x="481" y="886" as="sourcePoint" />
            <mxPoint x="481" y="664" as="targetPoint" />
          </mxGeometry>
        </mxCell>
        <mxCell id="csQHXVmGijgFcGHTdfF5-4" value="uploads" style="shape=rhombus;perimeter=rhombusPerimeter;whiteSpace=wrap;html=1;align=center;" parent="1" vertex="1">
          <mxGeometry x="421" y="700" width="120" height="60" as="geometry" />
        </mxCell>
        <mxCell id="csQHXVmGijgFcGHTdfF5-6" value="1" style="text;html=1;align=center;verticalAlign=middle;resizable=0;points=[];autosize=1;strokeColor=none;fillColor=none;" parent="1" vertex="1">
          <mxGeometry x="452" y="856.14" width="30" height="30" as="geometry" />
        </mxCell>
        <mxCell id="csQHXVmGijgFcGHTdfF5-7" value="1..*" style="text;html=1;align=center;verticalAlign=middle;resizable=0;points=[];autosize=1;strokeColor=none;fillColor=none;" parent="1" vertex="1">
          <mxGeometry x="477" y="664.25" width="40" height="30" as="geometry" />
        </mxCell>
        <mxCell id="csQHXVmGijgFcGHTdfF5-8" value="date" style="ellipse;whiteSpace=wrap;html=1;align=center;" parent="1" vertex="1">
          <mxGeometry x="489.5" y="432" width="100" height="38" as="geometry" />
        </mxCell>
        <mxCell id="csQHXVmGijgFcGHTdfF5-9" value="" style="endArrow=none;html=1;rounded=0;" parent="1" source="csQHXVmGijgFcGHTdfF5-8" target="csQHXVmGijgFcGHTdfF5-2" edge="1">
          <mxGeometry relative="1" as="geometry">
            <mxPoint x="448" y="510" as="sourcePoint" />
            <mxPoint x="485" y="634" as="targetPoint" />
          </mxGeometry>
        </mxCell>
        <mxCell id="_rydUxGyOtlFwdaq8O3P-1" value="ProjectRequest" style="whiteSpace=wrap;html=1;align=center;" parent="1" vertex="1">
          <mxGeometry x="30" y="1015.39" width="100" height="40" as="geometry" />
        </mxCell>
        <mxCell id="_rydUxGyOtlFwdaq8O3P-2" value="uploads" style="shape=rhombus;perimeter=rhombusPerimeter;whiteSpace=wrap;html=1;align=center;" parent="1" vertex="1">
          <mxGeometry x="230" y="1005.39" width="120" height="60" as="geometry" />
        </mxCell>
        <mxCell id="_rydUxGyOtlFwdaq8O3P-3" value="" style="endArrow=none;html=1;rounded=0;" parent="1" source="_rydUxGyOtlFwdaq8O3P-2" target="Fi8ofQacymHmuX7G_40k-45" edge="1">
          <mxGeometry relative="1" as="geometry">
            <mxPoint x="382" y="1107.1399999999999" as="sourcePoint" />
            <mxPoint x="382" y="956.14" as="targetPoint" />
          </mxGeometry>
        </mxCell>
        <mxCell id="_rydUxGyOtlFwdaq8O3P-4" value="1" style="text;html=1;align=center;verticalAlign=middle;resizable=0;points=[];autosize=1;strokeColor=none;fillColor=none;" parent="1" vertex="1">
          <mxGeometry x="401" y="917.28" width="30" height="30" as="geometry" />
        </mxCell>
        <mxCell id="_rydUxGyOtlFwdaq8O3P-5" value="" style="endArrow=none;html=1;rounded=0;" parent="1" source="_rydUxGyOtlFwdaq8O3P-2" target="_rydUxGyOtlFwdaq8O3P-1" edge="1">
          <mxGeometry relative="1" as="geometry">
            <mxPoint x="325" y="1028" as="sourcePoint" />
            <mxPoint x="461" y="936" as="targetPoint" />
          </mxGeometry>
        </mxCell>
        <mxCell id="_rydUxGyOtlFwdaq8O3P-6" value="1..*" style="text;html=1;align=center;verticalAlign=middle;resizable=0;points=[];autosize=1;strokeColor=none;fillColor=none;" parent="1" vertex="1">
          <mxGeometry x="125" y="1012.14" width="40" height="30" as="geometry" />
        </mxCell>
        <mxCell id="_rydUxGyOtlFwdaq8O3P-7" value="evaluates" style="shape=rhombus;perimeter=rhombusPerimeter;whiteSpace=wrap;html=1;align=center;" parent="1" vertex="1">
          <mxGeometry x="-159" y="810.14" width="120" height="60" as="geometry" />
        </mxCell>
        <mxCell id="_rydUxGyOtlFwdaq8O3P-8" value="" style="endArrow=none;html=1;rounded=0;" parent="1" source="Fi8ofQacymHmuX7G_40k-93" target="_rydUxGyOtlFwdaq8O3P-7" edge="1">
          <mxGeometry relative="1" as="geometry">
            <mxPoint x="-139" y="672" as="sourcePoint" />
            <mxPoint x="-110" y="766" as="targetPoint" />
          </mxGeometry>
        </mxCell>
        <mxCell id="_rydUxGyOtlFwdaq8O3P-9" value="" style="endArrow=none;html=1;rounded=0;" parent="1" source="_rydUxGyOtlFwdaq8O3P-1" target="_rydUxGyOtlFwdaq8O3P-7" edge="1">
          <mxGeometry relative="1" as="geometry">
            <mxPoint x="-179" y="672" as="sourcePoint" />
            <mxPoint x="-101" y="826" as="targetPoint" />
          </mxGeometry>
        </mxCell>
        <mxCell id="_rydUxGyOtlFwdaq8O3P-10" value="1" style="text;html=1;align=center;verticalAlign=middle;resizable=0;points=[];autosize=1;strokeColor=none;fillColor=none;" parent="1" vertex="1">
          <mxGeometry x="-183" y="662" width="30" height="30" as="geometry" />
        </mxCell>
        <mxCell id="_rydUxGyOtlFwdaq8O3P-11" value="1..*" style="text;html=1;align=center;verticalAlign=middle;resizable=0;points=[];autosize=1;strokeColor=none;fillColor=none;" parent="1" vertex="1">
          <mxGeometry x="49" y="988.22" width="40" height="30" as="geometry" />
        </mxCell>
        <mxCell id="_rydUxGyOtlFwdaq8O3P-13" value="id" style="ellipse;whiteSpace=wrap;html=1;align=center;fontStyle=4" parent="1" vertex="1">
          <mxGeometry x="-89" y="1091.39" width="100" height="40" as="geometry" />
        </mxCell>
        <mxCell id="_rydUxGyOtlFwdaq8O3P-14" value="name" style="ellipse;whiteSpace=wrap;html=1;align=center;fontStyle=0" parent="1" vertex="1">
          <mxGeometry x="-20" y="1139.0000000000002" width="100" height="40" as="geometry" />
        </mxCell>
        <mxCell id="_rydUxGyOtlFwdaq8O3P-15" value="studentId" style="ellipse;whiteSpace=wrap;html=1;align=center;fontStyle=0" parent="1" vertex="1">
          <mxGeometry x="89" y="1157.8900000000003" width="100" height="40" as="geometry" />
        </mxCell>
        <mxCell id="_rydUxGyOtlFwdaq8O3P-16" value="documentPath" style="ellipse;whiteSpace=wrap;html=1;align=center;fontStyle=0" parent="1" vertex="1">
          <mxGeometry x="141.5" y="1105.39" width="100" height="40" as="geometry" />
        </mxCell>
        <mxCell id="_rydUxGyOtlFwdaq8O3P-17" value="" style="endArrow=none;html=1;rounded=0;" parent="1" source="_rydUxGyOtlFwdaq8O3P-1" target="_rydUxGyOtlFwdaq8O3P-13" edge="1">
          <mxGeometry relative="1" as="geometry">
            <mxPoint x="-119" y="1011" as="sourcePoint" />
            <mxPoint x="-190" y="946" as="targetPoint" />
          </mxGeometry>
        </mxCell>
        <mxCell id="_rydUxGyOtlFwdaq8O3P-18" value="" style="endArrow=none;html=1;rounded=0;" parent="1" source="_rydUxGyOtlFwdaq8O3P-1" target="_rydUxGyOtlFwdaq8O3P-14" edge="1">
          <mxGeometry relative="1" as="geometry">
            <mxPoint x="59" y="1065" as="sourcePoint" />
            <mxPoint x="-2" y="1104" as="targetPoint" />
          </mxGeometry>
        </mxCell>
        <mxCell id="_rydUxGyOtlFwdaq8O3P-19" value="" style="endArrow=none;html=1;rounded=0;" parent="1" source="_rydUxGyOtlFwdaq8O3P-1" target="_rydUxGyOtlFwdaq8O3P-15" edge="1">
          <mxGeometry relative="1" as="geometry">
            <mxPoint x="82" y="1065" as="sourcePoint" />
            <mxPoint x="48" y="1149" as="targetPoint" />
          </mxGeometry>
        </mxCell>
        <mxCell id="_rydUxGyOtlFwdaq8O3P-20" value="" style="endArrow=none;html=1;rounded=0;" parent="1" source="_rydUxGyOtlFwdaq8O3P-1" target="_rydUxGyOtlFwdaq8O3P-16" edge="1">
          <mxGeometry relative="1" as="geometry">
            <mxPoint x="98" y="1065" as="sourcePoint" />
            <mxPoint x="141" y="1168" as="targetPoint" />
          </mxGeometry>
        </mxCell>
        <mxCell id="_rydUxGyOtlFwdaq8O3P-21" value="autoevaluationGrade" style="ellipse;whiteSpace=wrap;html=1;align=center;" parent="1" vertex="1">
          <mxGeometry x="695" y="770.1400000000001" width="130" height="40" as="geometry" />
        </mxCell>
        <mxCell id="_rydUxGyOtlFwdaq8O3P-22" value="" style="endArrow=none;html=1;rounded=0;" parent="1" source="Fi8ofQacymHmuX7G_40k-45" target="_rydUxGyOtlFwdaq8O3P-21" edge="1">
          <mxGeometry relative="1" as="geometry">
            <mxPoint x="521" y="936" as="sourcePoint" />
            <mxPoint x="784" y="1111" as="targetPoint" />
          </mxGeometry>
        </mxCell>
        <mxCell id="_rydUxGyOtlFwdaq8O3P-25" value="studentId" style="ellipse;whiteSpace=wrap;html=1;align=center;" parent="1" vertex="1">
          <mxGeometry x="541" y="479.25" width="100" height="38" as="geometry" />
        </mxCell>
        <mxCell id="_rydUxGyOtlFwdaq8O3P-26" value="" style="endArrow=none;html=1;rounded=0;" parent="1" source="_rydUxGyOtlFwdaq8O3P-25" target="csQHXVmGijgFcGHTdfF5-2" edge="1">
          <mxGeometry relative="1" as="geometry">
            <mxPoint x="360" y="428" as="sourcePoint" />
            <mxPoint x="479" y="634" as="targetPoint" />
          </mxGeometry>
        </mxCell>
        <mxCell id="_rydUxGyOtlFwdaq8O3P-31" value="evaluationPath" style="ellipse;whiteSpace=wrap;html=1;align=center;" parent="1" vertex="1">
          <mxGeometry x="49" y="427" width="100" height="38" as="geometry" />
        </mxCell>
        <mxCell id="_rydUxGyOtlFwdaq8O3P-33" value="" style="endArrow=none;html=1;rounded=0;" parent="1" source="_rydUxGyOtlFwdaq8O3P-31" target="Fi8ofQacymHmuX7G_40k-239" edge="1">
          <mxGeometry relative="1" as="geometry">
            <mxPoint x="526" y="480" as="sourcePoint" />
            <mxPoint x="495" y="634" as="targetPoint" />
          </mxGeometry>
        </mxCell>
        <mxCell id="_rydUxGyOtlFwdaq8O3P-34" value="evaluationID" style="ellipse;whiteSpace=wrap;html=1;align=center;fontStyle=4" parent="1" vertex="1">
          <mxGeometry x="130" y="490" width="100" height="38" as="geometry" />
        </mxCell>
        <mxCell id="_rydUxGyOtlFwdaq8O3P-35" value="" style="endArrow=none;html=1;rounded=0;" parent="1" source="_rydUxGyOtlFwdaq8O3P-34" target="Fi8ofQacymHmuX7G_40k-239" edge="1">
          <mxGeometry relative="1" as="geometry">
            <mxPoint x="109" y="448" as="sourcePoint" />
            <mxPoint x="110" y="622" as="targetPoint" />
          </mxGeometry>
        </mxCell>
      </root>
    </mxGraphModel>
  </diagram>
</mxfile>
